<svg xmlns="http://www.w3.org/2000/svg" width="15.206" height="12.164" viewBox="0 0 15.206 12.164">
  <g id="_icons" transform="translate(-2 -4)" opacity="0.45">
    <path id="Path_96" data-name="Path 96" d="M14.164,4H5.041A3.05,3.05,0,0,0,2,7.041v6.082a3.05,3.05,0,0,0,3.041,3.041h9.123a3.05,3.05,0,0,0,3.041-3.041V7.041A3.05,3.05,0,0,0,14.164,4Zm1.521,7.6H14.164a1.521,1.521,0,1,1,0-3.041h1.521ZM14.164,7.041a3.041,3.041,0,1,0,0,6.082h1.521a1.525,1.525,0,0,1-1.521,1.521H5.041a1.525,1.525,0,0,1-1.521-1.521V7.041A1.525,1.525,0,0,1,5.041,5.521h9.123a1.525,1.525,0,0,1,1.521,1.521Z" fill="#909090"/>
  </g>
</svg>
