<svg xmlns="http://www.w3.org/2000/svg" width="96.095" height="38.067" viewBox="0 0 96.095 38.067">
  <g id="logo_spc" transform="translate(-72.6 -68.75)">
    <path id="Path_46" data-name="Path 46" d="M336.442,74.058a1.392,1.392,0,0,1-1.39,1.39h-1.958v3.917h1.958a5.308,5.308,0,0,0,0-10.615h-4.8a1.958,1.958,0,0,0-1.958,1.958V85.121h3.917V72.666h2.846A1.392,1.392,0,0,1,336.442,74.058Z" transform="translate(-228.045)" fill="#fff"/>
    <path id="Path_47" data-name="Path 47" d="M572.6,81.779l-2.591-2.938-1.468,1.3a4.269,4.269,0,1,1,0-6.4l1.468,1.3,2.591-2.938-1.469-1.3a8.186,8.186,0,1,0,0,12.28Z" transform="translate(-432.499 0)" fill="#fff"/>
    <path id="Path_48" data-name="Path 48" d="M229.294,80.075a5.074,5.074,0,0,0-4.315-4.993l-1.156-.169a1.129,1.129,0,0,1,.163-2.246h4.523V68.75h-4.523a5.046,5.046,0,0,0-.731,10.039l1.156.169a1.129,1.129,0,0,1-.163,2.246H218.94v3.917h5.308A5.052,5.052,0,0,0,229.294,80.075Z" transform="translate(-130.518)" fill="#fff"/>
    <path id="Path_49" data-name="Path 49" d="M376.542,263.65h-4.8a1.958,1.958,0,0,0-1.958,1.958v14.413H373.7V267.566h2.846a1.39,1.39,0,0,1,0,2.781h-1.96v3.917h1.958c.035,0,.068,0,.1-.005a6.3,6.3,0,0,1,1.288,3.8v1.958h3.917v-1.958a10.221,10.221,0,0,0-1.534-5.378,5.3,5.3,0,0,0-3.772-9.034Z" transform="translate(-265.049 -173.827)" fill="#fff"/>
    <path id="Path_50" data-name="Path 50" d="M83.606,275.036a4.269,4.269,0,1,1,0-6.4l1.469,1.3,2.591-2.938L86.2,265.7a8.186,8.186,0,1,0,0,12.28l1.468-1.3-2.591-2.938Z" transform="translate(0 -173.827)" fill="#fff"/>
    <path id="Path_51" data-name="Path 51" d="M871.649,269.982l-1.156-.169a1.129,1.129,0,0,1,.163-2.246h4.523V263.65h-4.523a5.046,5.046,0,0,0-.731,10.039l1.156.169a1.129,1.129,0,0,1-.163,2.246H865.61v3.917h5.308a5.046,5.046,0,0,0,.731-10.039Z" transform="translate(-707.269 -173.827)" fill="#fff"/>
    <path id="Path_52" data-name="Path 52" d="M640.37,265.59v12.453A1.958,1.958,0,0,0,642.328,280h9.179v-3.917h-7.221v-8.537h7.221V263.63h-9.179A1.962,1.962,0,0,0,640.37,265.59Z" transform="translate(-506.382 -173.809)" fill="#fff"/>
    <rect id="Rectangle_17" data-name="Rectangle 17" width="4.82" height="3.917" transform="translate(138.84 96.049)" fill="#fff"/>
    <path id="Path_53" data-name="Path 53" d="M496.76,267.566H501.6v12.454h3.916V267.566h4.841V263.65h-13.6Z" transform="translate(-378.299 -173.827)" fill="#fff"/>
    <path id="Path_54" data-name="Path 54" d="M765.227,263.65H761.31v14.412a1.958,1.958,0,0,0,1.958,1.958h7.819V276.1h-5.86Z" transform="translate(-614.246 -173.827)" fill="#fff"/>
    <path id="Path_55" data-name="Path 55" d="M713.968,85.121h9.179V81.2h-7.221V72.666h7.221V68.75h-9.179a1.958,1.958,0,0,0-1.958,1.958V83.161A1.959,1.959,0,0,0,713.968,85.121Z" transform="translate(-570.276)" fill="#fff"/>
    <rect id="Rectangle_18" data-name="Rectangle 18" width="4.82" height="3.917" transform="translate(146.586 74.977)" fill="#fff"/>
    <g id="Group_38" data-name="Group 38" transform="translate(87.925 89.822)">
      <path id="Path_56" data-name="Path 56" d="M222.473,263.643a1.96,1.96,0,0,0-1.848,1.168l-6.285,14.246,3.584,1.581,4.343-9.844,3.659,9.783,3.669-1.372-5.344-14.289A1.961,1.961,0,0,0,222.473,263.643Z" transform="translate(-214.34 -263.642)" fill="#fff"/>
      <path id="Path_57" data-name="Path 57" d="M270.017,382.284a.711.711,0,0,1-1.232,0l-.655-1.134-.655-1.134a.711.711,0,0,1,.615-1.066h2.619a.711.711,0,0,1,.615,1.066l-.655,1.134Z" transform="translate(-261.645 -366.483)" fill="#fff"/>
    </g>
    <g id="Group_39" data-name="Group 39" transform="translate(110.417 68.75)">
      <path id="Path_58" data-name="Path 58" d="M430.5,68.753a1.959,1.959,0,0,0-1.848,1.168L422.37,84.166l3.584,1.581L430.3,75.9l3.659,9.783,3.669-1.372-5.343-14.289A1.958,1.958,0,0,0,430.5,68.753Z" transform="translate(-422.37 -68.752)" fill="#fff"/>
      <path id="Path_59" data-name="Path 59" d="M478.057,187.394a.711.711,0,0,1-1.231,0l-.655-1.134-.655-1.134a.711.711,0,0,1,.615-1.066h2.62a.711.711,0,0,1,.615,1.066l-.655,1.134Z" transform="translate(-469.683 -171.593)" fill="#fff"/>
    </g>
  </g>
</svg>
